HIERARCHY
ROOT SimulationBone
{
	OFFSET 0.000000 0.000000 0.000000
	CHANNELS 6 Xposition Yposition Zposition Zrotation Yrotation Xrotation 
	JOINT Hips
	{
		OFFSET 0.000000 0.000000 0.000000
		CHANNELS 6 Xposition Yposition Zposition Zrotation Yrotation Xrotation 
		JOINT LeftUpLeg
		{
			OFFSET 0.103458 1.857831 10.548505
			CHANNELS 3 Zrotation Yrotation Xrotation
			JOINT LeftLeg
			{
				OFFSET 43.500000 -0.000031 0.000002
				CHANNELS 3 Zrotation Yrotation Xrotation
				JOINT LeftFoot
				{
					OFFSET 42.372200 0.000023 0.000003
					CHANNELS 3 Zrotation Yrotation Xrotation
					JOINT LeftToe
					{
						OFFSET 17.299997 -0.000001 -0.000010
						CHANNELS 3 Zrotation Yrotation Xrotation
						End Site
						{
							OFFSET 0.000000 0.000000 0.000000
						}
					}
				}
			}
		}
		JOINT RightUpLeg
		{
			OFFSET 0.103457 1.857828 -10.548510
			CHANNELS 3 Zrotation Yrotation Xrotation
			JOINT RightLeg
			{
				OFFSET 43.500046 -0.000015 0.000002
				CHANNELS 3 Zrotation Yrotation Xrotation
				JOINT RightFoot
				{
					OFFSET 42.372261 -0.000008 0.000023
					CHANNELS 3 Zrotation Yrotation Xrotation
					JOINT RightToe
					{
						OFFSET 17.299990 -0.000007 -0.000002
						CHANNELS 3 Zrotation Yrotation Xrotation
						End Site
						{
							OFFSET 0.000000 0.000000 0.000000
						}
					}
				}
			}
		}
		JOINT Spine
		{
			OFFSET 6.901967 -2.603726 -0.000001
			CHANNELS 3 Zrotation Yrotation Xrotation
			JOINT Spine1
			{
				OFFSET 12.588100 -0.000009 -0.000003
				CHANNELS 3 Zrotation Yrotation Xrotation
				JOINT Spine2
				{
					OFFSET 12.343202 0.000008 0.000008
					CHANNELS 3 Zrotation Yrotation Xrotation
					JOINT Neck
					{
						OFFSET 25.832897 -0.000015 -0.000004
						CHANNELS 3 Zrotation Yrotation Xrotation
						JOINT Head
						{
							OFFSET 11.766609 0.000013 -0.000006
							CHANNELS 3 Zrotation Yrotation Xrotation
							End Site
							{
								OFFSET 0.000000 0.000000 0.000000
							}
						}
					}
					JOINT LeftShoulder
					{
						OFFSET 19.745911 -1.480373 6.000098
						CHANNELS 3 Zrotation Yrotation Xrotation
						JOINT LeftArm
						{
							OFFSET 11.284123 -0.000007 -0.000032
							CHANNELS 3 Zrotation Yrotation Xrotation
							JOINT LeftForeArm
							{
								OFFSET 33.000050 0.000005 0.000031
								CHANNELS 3 Zrotation Yrotation Xrotation
								JOINT LeftHand
								{
									OFFSET 25.200008 0.000017 0.000013
									CHANNELS 3 Zrotation Yrotation Xrotation
									End Site
									{
										OFFSET 0.000000 0.000000 0.000000
									}
								}
							}
						}
					}
					JOINT RightShoulder
					{
						OFFSET 19.746092 -1.480379 -6.000077
						CHANNELS 3 Zrotation Yrotation Xrotation
						JOINT RightArm
						{
							OFFSET 11.284136 -0.000017 -0.000017
							CHANNELS 3 Zrotation Yrotation Xrotation
							JOINT RightForeArm
							{
								OFFSET 33.000099 0.000019 0.000015
								CHANNELS 3 Zrotation Yrotation Xrotation
								JOINT RightHand
								{
									OFFSET 25.199780 0.000140 0.000408
									CHANNELS 3 Zrotation Yrotation Xrotation
									End Site
									{
										OFFSET 0.000000 0.000000 0.000000
									}
								}
							}
						}
					}
				}
			}
		}
	}
}
MOTION
Frames: 14
Frame Time: 0.033333
300.996728 0.000000 352.075471 0.000000 -81.649016 0.000000 -2.271719 86.037643 0.606912 92.556606 0.751297 -175.173140 -170.917752 -1.247095 178.277623 -35.569156 -3.559324 -1.132528 87.489655 0.941211 0.126727 21.454557 0.003114 0.000018 149.888843 0.528602 -171.038524 -34.385378 0.491679 7.034325 68.575748 -5.348315 -0.661198 21.454553 -0.003084 0.000001 9.240194 0.407199 -1.454888 8.456256 0.919570 -2.876192 8.138563 0.902048 -2.881687 11.242572 0.627435 2.264439 -4.456697 -0.296412 2.457294 -168.454089 -73.466368 -13.254246 -25.395888 56.011127 -2.181266 -83.743331 -8.735721 2.680043 -3.619749 -6.335671 18.423013 -164.347821 76.577622 17.484181 12.909629 -52.725399 -63.270365 -27.821765 10.404412 -0.893082 15.256974 -12.162964 -44.833614 
300.919298 0.000000 354.629924 0.000000 -81.868234 0.000000 -1.576233 85.918137 0.385827 92.945065 1.867975 -175.308916 -175.134001 -2.853691 175.283459 -47.110390 -1.272733 -0.131142 80.678857 -0.436307 -2.388033 21.454562 0.003119 0.000021 151.006316 0.044695 -169.784337 -37.099252 1.653960 6.407525 71.172839 -5.526385 -2.713624 21.454551 -0.003099 -0.000002 9.102266 0.868634 -1.238447 8.173506 1.822481 -2.412776 7.855550 1.807743 -2.423735 13.088453 0.652304 2.115363 -4.745083 -0.662399 2.394314 -168.042502 -73.329751 -13.676889 -22.030077 57.555982 4.424880 -76.065119 -13.372107 2.669951 -0.959185 -6.457979 20.326032 -166.184691 75.787683 15.612387 7.920687 -53.627360 -56.862708 -27.970617 11.078576 -0.939490 13.261424 -8.157806 -45.479996 
300.946137 0.000000 357.348162 0.000000 -82.102920 0.000000 -0.841948 86.226357 0.173196 93.390465 2.009265 -175.775050 179.192212 -3.585400 174.625561 -60.443670 -0.186684 -0.919147 74.318462 -1.044110 -5.623630 21.454560 0.003105 0.000016 153.125219 -0.310199 -169.354704 -38.500059 1.717818 5.871686 74.168696 -5.092246 -2.948457 21.454553 -0.003096 0.000000 8.951189 1.097896 -0.965738 7.872742 2.258856 -1.854988 7.554574 2.247479 -1.868604 14.832654 0.329712 1.805079 -4.602123 -0.689362 2.060349 -167.949106 -73.004026 -13.773394 -21.132604 58.494307 11.596145 -64.032019 -18.453692 2.524349 1.627340 -7.120838 19.041932 -166.659116 75.296907 15.129407 1.415557 -54.819365 -50.439810 -28.043172 11.645617 -0.977509 10.267338 -2.896768 -42.815495 
301.068658 0.000000 360.220125 0.000000 -82.353369 0.000000 -0.364313 86.704132 0.091182 94.212886 2.429541 -176.709188 173.564710 -4.451994 174.135372 -71.642032 0.722299 -2.151552 72.026974 -0.625528 -6.578620 21.454567 0.003111 0.000016 156.298825 -1.578399 -170.828509 -38.201016 2.166163 6.110191 76.351024 -5.122235 -2.760047 21.454553 -0.003084 0.000000 8.977534 1.293952 -0.603463 7.931484 2.626172 -1.117201 7.613086 2.619230 -1.133047 15.757475 0.139160 1.415494 -4.429159 -0.841377 1.684576 -168.735111 -72.786409 -12.966458 -21.782535 59.026058 16.224073 -49.985937 -20.397865 2.140388 4.096776 -7.263723 15.473136 -167.638988 74.747138 14.128130 -7.392864 -55.677537 -41.728887 -27.949117 12.131511 -1.007268 7.864095 1.370561 -38.058272 
301.278273 0.000000 363.235759 0.000000 -82.619831 0.000000 -0.061697 87.465103 0.019626 94.928121 2.323212 -178.030914 167.825070 -4.710801 173.491900 -79.554485 1.163378 -3.274369 74.890142 1.200657 -3.659502 21.454558 0.003117 0.000012 159.989176 -2.330300 -172.362706 -36.713390 2.408735 5.992813 77.780569 -4.988091 -2.755618 21.454551 -0.003089 0.000002 9.061321 1.282804 -0.339076 8.105198 2.586181 -0.587712 7.786774 2.582433 -0.603326 16.144438 0.329376 1.541263 -4.765985 -0.933147 1.848177 -168.556132 -72.312155 -13.150758 -22.228004 59.181342 18.760720 -36.352408 -18.916219 1.647187 7.241382 -5.888885 11.796338 -171.104285 74.358016 10.578108 -18.370173 -55.885506 -31.422473 -27.797007 12.580303 -1.033547 8.079323 3.904715 -31.752487 
301.566397 0.000000 366.385004 0.000000 -82.902527 0.000000 0.142588 88.352730 -0.088262 95.380498 1.648066 -179.397073 162.273779 -4.611810 173.053785 -83.825552 1.475492 -4.725612 75.530766 2.348883 -3.318666 21.454562 0.003113 0.000015 163.789671 -2.203798 -173.824257 -34.632358 2.646836 5.605641 78.977088 -4.678128 -2.749122 21.454550 -0.003094 -0.000002 9.042585 1.104934 -0.194502 8.070822 2.220717 -0.311611 7.752455 2.218668 -0.325036 16.624086 0.263164 1.787012 -4.737211 -1.250807 2.181396 -168.391293 -72.124264 -13.320410 -20.300524 60.125991 19.859846 -25.391879 -16.156773 1.247452 8.868848 -3.759328 8.110485 -175.394204 74.859898 6.187590 -29.805952 -55.900925 -20.280105 -27.792904 12.619335 -1.036002 7.989154 4.964844 -26.301358 
301.924440 0.000000 369.657805 0.000000 -83.201657 0.000000 0.198448 89.089508 -0.089195 95.459824 1.336003 179.239264 156.890292 -5.327897 172.690555 -84.565392 1.686603 -6.034478 75.409769 3.536460 -2.431152 21.454553 0.003099 0.000019 167.307328 -2.285300 -175.221482 -32.221049 2.884149 5.256477 79.936518 -4.422906 -2.819402 21.454553 -0.003094 0.000000 8.947074 0.969883 -0.045180 7.882206 1.940608 -0.024277 7.563905 1.940288 -0.036006 16.695424 0.104756 2.101549 -4.421754 -1.380004 2.532642 -168.000592 -71.941809 -13.722508 -14.701878 60.835074 21.478172 -20.563393 -14.394197 1.066705 12.515349 2.112625 11.548711 -179.648100 75.577840 1.845394 -40.665351 -54.776034 -9.928368 -28.909998 12.698199 -1.061108 9.156576 4.792541 -23.398883 
302.343817 0.000000 373.044104 0.000000 -83.517418 0.000000 0.171484 89.612061 -0.009594 95.387317 1.451108 177.927846 152.324256 -6.847397 172.970484 -82.295918 1.695544 -6.726153 74.847057 3.724226 -3.484961 21.454557 0.003115 0.000015 170.736288 -2.683299 -176.745229 -29.654462 3.098816 5.034056 80.765887 -4.237151 -2.804080 21.454553 -0.003076 0.000000 8.812202 0.921255 0.165714 7.615668 1.829658 0.391660 7.297405 1.831852 0.380593 17.120487 0.012640 2.383268 -4.892828 -1.377432 2.832909 -167.141395 -71.550664 -14.607591 -5.509881 60.438145 28.883757 -21.733913 -14.566435 1.092636 15.275455 7.215469 19.925134 177.263189 76.129159 -1.299992 -49.593194 -52.505542 -3.701508 -30.844458 13.297518 -1.136636 8.882737 4.682026 -21.161775 
302.815941 0.000000 376.533844 0.000000 -83.850016 0.000000 0.176149 89.807121 0.097181 95.551633 1.729594 176.795481 149.307799 -8.032299 174.312151 -76.970385 1.132418 -7.442032 74.441651 4.465039 -2.794909 21.454565 0.003103 0.000021 174.192159 -3.003901 -177.797529 -27.728140 3.145168 4.623356 81.924834 -3.895368 -2.735283 21.454553 -0.003093 -0.000001 8.762428 0.909846 0.406108 7.519737 1.791475 0.870456 7.201524 1.796556 0.859616 17.115457 -0.152476 2.465491 -5.590750 -1.577999 2.977851 -164.362710 -71.515666 -17.467381 2.776168 59.226961 41.346646 -24.534629 -15.286879 1.178637 14.298374 11.123303 27.003877 175.511778 77.134337 -3.063906 -56.926174 -50.018869 0.250201 -33.669032 14.439377 -1.269177 8.210741 4.374747 -19.827151 
303.332223 0.000000 380.116968 0.000000 -84.199682 0.000000 0.228670 89.779579 0.212132 95.575370 2.030626 175.958876 147.406820 -8.906095 176.443607 -68.930583 0.282801 -7.880591 73.878850 4.744448 -3.046751 21.454555 0.003098 0.000018 177.446580 -3.175093 -179.315511 -26.116728 3.451494 4.583230 83.280906 -3.779809 -2.521726 21.454553 -0.003087 0.000001 8.661680 0.912916 0.680226 7.322397 1.781118 1.416876 7.004253 1.789504 1.406085 17.301890 -0.072750 2.345065 -5.688862 -1.688286 2.884857 -162.816478 -71.311813 -19.060698 9.101700 56.996624 54.534720 -27.131793 -15.677142 1.246216 11.339318 10.564037 26.253123 172.850504 77.864430 -5.756098 -61.419616 -47.379844 2.758263 -37.295490 15.401336 -1.415449 6.894004 5.804961 -19.249703 
303.884077 0.000000 383.783419 0.000000 -84.566690 0.000000 0.256219 89.512444 0.390898 95.601323 2.529671 175.568646 147.091976 -9.744592 178.575528 -58.045441 -0.401984 -7.944811 73.653939 5.081450 -2.186347 21.454560 0.003115 0.000020 -179.209301 -3.451594 178.726093 -24.461266 4.036944 5.011042 84.832473 -3.982481 -2.257928 21.454551 -0.003084 0.000001 8.560157 0.976755 0.896178 7.123791 1.896684 1.850891 6.805680 1.907681 1.839400 17.823969 0.292442 2.289842 -5.861236 -1.815430 2.871661 -163.065507 -71.398372 -18.803516 14.895734 55.088969 63.835788 -29.599882 -15.940138 1.308323 8.909429 8.658448 20.570511 170.365531 77.933565 -8.283484 -63.709259 -44.588633 4.355936 -41.793910 16.334788 -1.593126 5.305066 6.542567 -21.000933 
304.462916 0.000000 387.523140 0.000000 -84.951366 0.000000 0.309088 89.069908 0.590521 95.765768 2.996287 175.517953 148.626269 -10.614192 -178.638748 -44.135757 -1.592637 -8.143188 72.540482 4.910518 -3.363370 21.454562 0.003107 0.000017 -175.563524 -3.509792 177.746207 -22.696734 4.452168 5.033802 86.494749 -3.925112 -2.066853 21.454551 -0.003098 -0.000001 8.515806 1.082664 1.031001 7.039459 2.100833 2.126145 6.721358 2.113503 2.113408 18.044552 0.171236 2.294870 -5.678872 -1.713330 2.845819 -162.528791 -71.390729 -19.355995 19.734208 54.090959 69.263876 -30.975273 -15.785791 1.325647 6.841982 6.265528 14.648707 169.220505 78.388326 -9.433506 -65.335534 -42.389059 5.940606 -46.634728 16.946463 -1.773918 4.041106 7.835317 -23.276743 
305.060152 0.000000 391.326074 0.000000 -85.354108 0.000000 0.331981 88.477921 0.847210 95.432158 3.399275 175.693155 150.820303 -11.317989 -177.661649 -28.306478 -1.727637 -7.857244 70.980665 4.892952 -2.762435 21.454555 0.003114 0.000016 -172.449887 -3.481502 177.464379 -21.097698 4.753226 4.778860 88.168617 -3.676008 -1.813220 21.454551 -0.003095 0.000000 8.359875 1.191307 1.071499 6.730684 2.318525 2.210700 6.412558 2.331683 2.196656 17.899767 -0.028524 2.322292 -4.887119 -1.691354 2.850494 -161.039004 -71.112153 -20.892995 24.241135 54.037499 70.344617 -31.643887 -15.618498 1.328613 6.593723 5.938491 11.019128 167.942221 78.910521 -10.714803 -66.247125 -40.618599 7.611362 -51.397447 17.217001 -1.944066 2.057634 6.802973 -24.954996 
305.667198 0.000000 395.182163 0.000000 -85.775400 0.000000 0.384567 87.813362 1.054992 95.362148 3.605457 175.836346 153.499937 -12.046412 -174.842584 -13.235205 -2.791003 -8.334238 69.796132 4.520387 -5.059449 21.454558 0.003102 0.000015 -169.105949 -3.127306 177.188863 -19.576726 5.030631 4.409978 89.552079 -3.307004 -1.168500 21.454550 -0.003097 -0.000002 8.288620 1.216872 1.103675 6.589339 2.369170 2.275081 6.271207 2.382745 2.260728 17.981542 0.492676 2.369436 -4.483814 -2.225736 3.031471 -159.548206 -70.929739 -22.430671 27.485573 54.795934 69.638027 -30.849536 -15.192588 1.285056 6.521036 6.614709 9.308599 168.497024 78.619828 -10.161086 -65.995863 -38.552610 7.991678 -56.146433 16.932242 -2.088922 1.267965 6.151347 -26.404996 
